<svg width="28" height="28" viewBox="0 0 28 28" fill="none" xmlns="http://www.w3.org/2000/svg">
<mask id="mask0_2097_4695" style="mask-type:alpha" maskUnits="userSpaceOnUse" x="1" y="2" width="25" height="24">
<rect x="1.87012" y="2" width="24" height="24" fill="#D9D9D9"/>
</mask>
<g mask="url(#mask0_2097_4695)">
<path d="M13.8701 13.6921C12.9076 13.6921 12.0837 13.3495 11.3984 12.6641C10.7129 11.9786 10.3701 11.1546 10.3701 10.1921C10.3701 9.22964 10.7129 8.40572 11.3984 7.72039C12.0837 7.03489 12.9076 6.69214 13.8701 6.69214C14.8326 6.69214 15.6565 7.03489 16.3419 7.72039C17.0274 8.40572 17.3701 9.22964 17.3701 10.1921C17.3701 11.1546 17.0274 11.9786 16.3419 12.6641C15.6565 13.3495 14.8326 13.6921 13.8701 13.6921ZM6.37012 19.7884V19.0844C6.37012 18.5947 6.50312 18.1412 6.76912 17.7239C7.03512 17.3066 7.39062 16.9857 7.83562 16.7614C8.82395 16.2769 9.82103 15.9135 10.8269 15.6711C11.8327 15.4288 12.8471 15.3076 13.8701 15.3076C14.8931 15.3076 15.9075 15.4288 16.9134 15.6711C17.9192 15.9135 18.9163 16.2769 19.9046 16.7614C20.3496 16.9857 20.7051 17.3066 20.9711 17.7239C21.2371 18.1412 21.3701 18.5947 21.3701 19.0844V19.7884C21.3701 20.2101 21.2224 20.5687 20.9269 20.8644C20.6314 21.1599 20.2727 21.3076 19.8509 21.3076H7.88937C7.46753 21.3076 7.10887 21.1599 6.81337 20.8644C6.51787 20.5687 6.37012 20.2101 6.37012 19.7884ZM7.87012 19.8076H19.8701V19.0844C19.8701 18.8819 19.8115 18.6944 19.6941 18.5219C19.5768 18.3496 19.4175 18.2089 19.2164 18.0999C18.3547 17.6756 17.4762 17.3541 16.5809 17.1354C15.6854 16.9169 14.7818 16.8076 13.8701 16.8076C12.9585 16.8076 12.0549 16.9169 11.1594 17.1354C10.264 17.3541 9.38553 17.6756 8.52387 18.0999C8.3227 18.2089 8.16345 18.3496 8.04612 18.5219C7.92878 18.6944 7.87012 18.8819 7.87012 19.0844V19.8076ZM13.8701 12.1921C14.4201 12.1921 14.891 11.9963 15.2826 11.6046C15.6743 11.213 15.8701 10.7421 15.8701 10.1921C15.8701 9.64214 15.6743 9.17131 15.2826 8.77964C14.891 8.38797 14.4201 8.19214 13.8701 8.19214C13.3201 8.19214 12.8493 8.38797 12.4576 8.77964C12.066 9.17131 11.8701 9.64214 11.8701 10.1921C11.8701 10.7421 12.066 11.213 12.4576 11.6046C12.8493 11.9963 13.3201 12.1921 13.8701 12.1921Z" fill="#BBBBBB"/>
</g>
</svg>
