<svg width="28" height="28" viewBox="0 0 28 28" fill="none" xmlns="http://www.w3.org/2000/svg">
<mask id="mask0_2097_4665" style="mask-type:alpha" maskUnits="userSpaceOnUse" x="2" y="2" width="25" height="24">
<rect x="2.21362" y="2" width="24" height="24" fill="#D9D9D9"/>
</mask>
<g mask="url(#mask0_2097_4665)">
<path d="M4.01196 19.0844C4.01196 18.5691 4.14496 18.1091 4.41096 17.7046C4.67696 17.3001 5.03221 16.9855 5.47671 16.7606C6.42705 16.2958 7.38263 15.9374 8.34346 15.6854C9.30446 15.4336 10.3605 15.3076 11.5117 15.3076C12.663 15.3076 13.7191 15.4336 14.68 15.6854C15.641 15.9374 16.5966 16.2958 17.547 16.7606C17.9915 16.9855 18.3467 17.3001 18.6127 17.7046C18.8787 18.1091 19.0117 18.5691 19.0117 19.0844V19.7884C19.0117 20.1909 18.864 20.5447 18.5685 20.8499C18.273 21.1551 17.9143 21.3076 17.4925 21.3076H5.53096C5.1093 21.3076 4.75071 21.1599 4.45521 20.8644C4.15971 20.5687 4.01196 20.2101 4.01196 19.7884V19.0844ZM22.8965 21.3076H20.6252C20.7509 21.0781 20.8467 20.8339 20.9127 20.5749C20.9787 20.3159 21.0117 20.0537 21.0117 19.7884V18.9614C21.0117 18.3051 20.851 17.6795 20.5297 17.0846C20.2082 16.49 19.7522 15.9797 19.1617 15.5539C19.8322 15.6539 20.4688 15.8086 21.0715 16.0181C21.674 16.2278 22.249 16.4756 22.7965 16.7614C23.3131 17.0371 23.7121 17.362 23.9935 17.7361C24.2748 18.1101 24.4155 18.5186 24.4155 18.9614V19.7884C24.4155 20.2101 24.2677 20.5687 23.9722 20.8644C23.6767 21.1599 23.3181 21.3076 22.8965 21.3076ZM11.5117 13.6921C10.5492 13.6921 9.7253 13.3495 9.03996 12.6641C8.35463 11.9786 8.01196 11.1546 8.01196 10.1921C8.01196 9.22964 8.35463 8.40572 9.03996 7.72039C9.7253 7.03489 10.5492 6.69214 11.5117 6.69214C12.4742 6.69214 13.2982 7.03489 13.9837 7.72039C14.669 8.40572 15.0117 9.22964 15.0117 10.1921C15.0117 11.1546 14.669 11.9786 13.9837 12.6641C13.2982 13.3495 12.4742 13.6921 11.5117 13.6921ZM20.1462 10.1921C20.1462 11.1546 19.8035 11.9786 19.1182 12.6641C18.4329 13.3495 17.609 13.6921 16.6465 13.6921C16.5336 13.6921 16.39 13.6793 16.2157 13.6536C16.0412 13.628 15.8976 13.5998 15.785 13.5691C16.1793 13.095 16.4824 12.569 16.6942 11.9911C16.9059 11.4133 17.0117 10.8133 17.0117 10.1911C17.0117 9.56881 16.9037 8.97105 16.6877 8.39789C16.4717 7.82489 16.1708 7.29739 15.785 6.81539C15.9285 6.76406 16.072 6.73072 16.2157 6.71539C16.3592 6.69989 16.5028 6.69214 16.6465 6.69214C17.609 6.69214 18.4329 7.03489 19.1182 7.72039C19.8035 8.40572 20.1462 9.22964 20.1462 10.1921ZM5.51171 19.8076H17.5117V19.0844C17.5117 18.8756 17.4595 18.6897 17.355 18.5269C17.2506 18.3641 17.085 18.2217 16.858 18.0999C16.035 17.6756 15.1875 17.3541 14.3157 17.1354C13.4439 16.9169 12.5092 16.8076 11.5117 16.8076C10.5144 16.8076 9.5798 16.9169 8.70796 17.1354C7.83613 17.3541 6.98871 17.6756 6.16571 18.0999C5.93871 18.2217 5.77296 18.3641 5.66846 18.5269C5.56396 18.6897 5.51171 18.8756 5.51171 19.0844V19.8076ZM11.5117 12.1921C12.0617 12.1921 12.5325 11.9963 12.9242 11.6046C13.3159 11.213 13.5117 10.7421 13.5117 10.1921C13.5117 9.64214 13.3159 9.17131 12.9242 8.77964C12.5325 8.38797 12.0617 8.19214 11.5117 8.19214C10.9617 8.19214 10.4909 8.38797 10.0992 8.77964C9.70755 9.17131 9.51171 9.64214 9.51171 10.1921C9.51171 10.7421 9.70755 11.213 10.0992 11.6046C10.4909 11.9963 10.9617 12.1921 11.5117 12.1921Z" fill="#BBBBBB"/>
</g>
</svg>
