<svg width="28" height="28" viewBox="0 0 28 28" fill="none" xmlns="http://www.w3.org/2000/svg">
<mask id="mask0_2097_4672" style="mask-type:alpha" maskUnits="userSpaceOnUse" x="2" y="2" width="25" height="24">
<rect x="2.09912" y="2" width="24" height="24" fill="#D9D9D9"/>
</mask>
<g mask="url(#mask0_2097_4672)">
<path d="M21.9365 7.98516C22.2497 7.75572 22.682 7.80457 22.9365 8.08672L22.9854 8.14629L23.2168 8.47637C24.3468 10.1491 25.0097 12.1692 25.0098 14.3396C25.0098 20.1233 20.325 24.8201 14.5303 24.8201C10.6834 24.8201 7.32482 22.7437 5.5 19.6551V22.0398C5.49997 22.454 5.16419 22.7898 4.75 22.7898C4.33581 22.7898 4.00003 22.454 4 22.0398V17.8299L4.00391 17.7527C4.04253 17.3748 4.36183 17.0799 4.75 17.0799H8.94043L9.0166 17.0838C9.39483 17.1222 9.69043 17.4415 9.69043 17.8299C9.6904 18.2182 9.39481 18.5376 9.0166 18.576L8.94043 18.5799H6.61523C8.13444 21.4027 11.1092 23.3201 14.5303 23.3201C19.4955 23.3201 23.5098 19.2959 23.5098 14.3396C23.5097 12.4789 22.9431 10.7487 21.9746 9.31523L21.7754 9.03301L21.7334 8.96855C21.5411 8.64099 21.6237 8.21473 21.9365 7.98516ZM5.66113 12.9744C5.59758 13.3837 5.214 13.6639 4.80469 13.6004C4.39565 13.5367 4.11543 13.154 4.17871 12.7449L5.66113 12.9744ZM6.15039 8.0584C6.39938 7.7277 6.87025 7.6612 7.20117 7.90996C7.53198 8.15892 7.59837 8.62977 7.34961 8.96074C6.48342 10.1126 5.89214 11.4872 5.66113 12.9744L4.91992 12.8592L4.17871 12.7449C4.44777 11.0124 5.13677 9.40629 6.15039 8.0584ZM12.8496 4.00176C13.2287 3.97579 13.574 4.24029 13.6396 4.62285C13.7051 5.00556 13.4678 5.37076 13.1016 5.47246L13.0273 5.48906C11.8485 5.69092 10.7532 6.11881 9.7793 6.72441L9.37012 6.99492C9.03058 7.23201 8.56239 7.14879 8.3252 6.80937C8.08807 6.46976 8.17114 6.00159 8.51074 5.76445L8.74707 5.6043C9.93885 4.81843 11.2993 4.26302 12.7734 4.01055L12.8496 4.00176ZM16.4121 4.03203L16.9297 4.13848C17.9538 4.37675 18.9138 4.76842 19.7949 5.28398L20.2295 5.55156L20.292 5.59648C20.5875 5.83508 20.6609 6.26443 20.4492 6.58965C20.2375 6.9148 19.8153 7.02112 19.4775 6.84746L19.4111 6.8084L19.0381 6.57891C18.2815 6.13609 17.4611 5.80226 16.5889 5.59941L16.1484 5.50859L16.0742 5.49101C15.7086 5.38696 15.474 5.02073 15.542 4.63848C15.6102 4.25622 15.9569 3.9936 16.3359 4.02226L16.4121 4.03203Z" fill="#BBBBBB"/>
</g>
</svg>
