<svg width="28" height="28" viewBox="0 0 28 28" fill="none" xmlns="http://www.w3.org/2000/svg">
<mask id="mask0_2097_4688" style="mask-type:alpha" maskUnits="userSpaceOnUse" x="1" y="2" width="25" height="24">
<rect x="1.98438" y="2" width="24" height="24" fill="#D9D9D9"/>
</mask>
<g mask="url(#mask0_2097_4688)">
<path d="M13.2345 21.25V15.5192L6.1267 7.51925C6.02187 7.41158 5.9367 7.28708 5.8712 7.14575C5.8057 7.00442 5.77295 6.85967 5.77295 6.7115C5.77295 6.3615 5.8932 6.07208 6.1337 5.84325C6.37403 5.61442 6.66787 5.5 7.0152 5.5H20.9537C21.301 5.5 21.5949 5.61408 21.8352 5.84225C22.0757 6.07025 22.196 6.35867 22.196 6.7075C22.196 6.855 22.1632 7 22.0977 7.1425C22.0322 7.285 21.947 7.41058 21.8422 7.51925L14.7345 15.5192V21.25H18.7345C18.947 21.25 19.125 21.3219 19.2687 21.4658C19.4125 21.6096 19.4845 21.7877 19.4845 22.0002C19.4845 22.2129 19.4125 22.391 19.2687 22.5345C19.125 22.6782 18.947 22.75 18.7345 22.75H9.23445C9.02195 22.75 8.84387 22.6781 8.7002 22.5343C8.55637 22.3904 8.48445 22.2123 8.48445 21.9998C8.48445 21.7871 8.55637 21.609 8.7002 21.4655C8.84387 21.3218 9.02195 21.25 9.23445 21.25H13.2345ZM9.43445 9H18.5345L20.3345 7H7.63445L9.43445 9ZM13.9845 14.1L17.2017 10.5H10.7672L13.9845 14.1Z" fill="#BBBBBB"/>
</g>
</svg>
